<svg width="2156" height="120" viewBox="0 0 2156 120" fill="none" xmlns="http://www.w3.org/2000/svg">
<path d="M-103 100.5L172.717 144.379C224.909 152.685 278.088 152.663 330.273 144.316L399.483 133.246C454.768 124.403 511.146 124.908 566.264 134.74L690.577 156.916L832.159 181.371C899.07 192.928 967.633 190.735 1033.67 174.926L1225.58 128.984C1250.87 122.928 1276.6 118.856 1302.53 116.803L1508.5 100.5L1755.5 100.5L2055 119.887L2348.06 178.967C2448.24 199.161 2539.72 249.816 2610 324V324" stroke="#F1F0EA" stroke-width="200"/>
<path d="M-103 100.5L172.717 144.379C224.909 152.685 278.088 152.663 330.273 144.316L399.483 133.246C454.768 124.403 511.146 124.908 566.264 134.74L690.577 156.916L832.159 181.371C899.07 192.928 967.633 190.735 1033.67 174.926L1225.58 128.984C1250.87 122.928 1276.6 118.856 1302.53 116.803L1508.5 100.5L1755.5 100.5L2055 119.887L2348.06 178.967C2448.24 199.161 2539.72 249.816 2610 324V324" stroke="url(#paint0_linear_8_31)" stroke-width="200"/>
<defs>
<linearGradient id="paint0_linear_8_31" x1="551" y1="213.002" x2="1078.03" y2="211.881" gradientUnits="userSpaceOnUse">
<stop stop-color="#56644A"/>
<stop offset="0.666667" stop-color="#56644A"/>
<stop offset="0.668017" stop-color="#E7E0C8"/>
<stop offset="1" stop-color="#FCF2DA"/>
</linearGradient>
</defs>
</svg>
